{
  "accessors": [
    {
      "bufferView": 2,
      "componentType": 5126,
      "count": 2191,
      "max": [
        2.3147120475769043,
        1.0,
        4.411023139953613
      ],
      "min": [
        -2.3147120475769043,
        -1.0,
        -40.87717056274414
      ],
      "type": "VEC3"
    },
    {
      "bufferView": 2,
      "byteOffset": 26292,
      "componentType": 5126,
      "count": 2191,
      "max": [
        1.0,
        1.0,
        1.0
      ],
      "min": [
        -1.0,
        -1.0,
        -1.0
      ],
      "type": "VEC3"
    },
    {
      "bufferView": 1,
      "componentType": 5126,
      "count": 2191,
      "max": [
        0.875,
        1.0
      ],
      "min": [
        0.125,
        0.0
      ],
      "type": "VEC2"
    },
    {
      "bufferView": 0,
      "componentType": 5125,
      "count": 3828,
      "type": "SCALAR"
    },
    {
      "bufferView": 2,
      "byteOffset": 52584,
      "componentType": 5126,
      "count": 276,
      "max": [
        2.3147120475769043,
        1.0,
        7.10143518447876
      ],
      "min": [
        -2.3147120475769043,
        -0.7413179278373718,
        -36.999881744384766
      ],
      "type": "VEC3"
    },
    {
      "bufferView": 2,
      "byteOffset": 55896,
      "componentType": 5126,
      "count": 276,
      "max": [
        0.9999884963035583,
        1.0,
        0.9584261178970337
      ],
      "min": [
        -0.9999884963035583,
        -0.9878023862838745,
        0.0
      ],
      "type": "VEC3"
    },
    {
      "bufferView": 1,
      "byteOffset": 17528,
      "componentType": 5126,
      "count": 276,
      "max": [
        0.4375,
        0.7176647782325745
      ],
      "min": [
        0.375,
        0.0
      ],
      "type": "VEC2"
    },
    {
      "bufferView": 0,
      "byteOffset": 15312,
      "componentType": 5125,
      "count": 348,
      "type": "SCALAR"
    },
    {
      "bufferView": 2,
      "byteOffset": 59208,
      "componentType": 5126,
      "count": 19395,
      "max": [
        3.3828470706939697,
        1.0,
        44.7323112487793
      ],
      "min": [
        -3.3828470706939697,
        -1.055961012840271,
        -295.4695129394531
      ],
      "type": "VEC3"
    },
    {
      "bufferView": 2,
      "byteOffset": 291948,
      "componentType": 5126,
      "count": 19395,
      "max": [
        1.0,
        1.0,
        1.0
      ],
      "min": [
        -1.0,
        -1.0,
        -1.0
      ],
      "type": "VEC3"
    },
    {
      "bufferView": 1,
      "byteOffset": 19736,
      "componentType": 5126,
      "count": 19395,
      "max": [
        1.0,
        1.0
      ],
      "min": [
        0.0,
        0.0
      ],
      "type": "VEC2"
    },
    {
      "bufferView": 1,
      "byteOffset": 174896,
      "componentType": 5126,
      "count": 19395,
      "max": [
        0.0,
        0.0
      ],
      "min": [
        0.0,
        0.0
      ],
      "type": "VEC2"
    },
    {
      "bufferView": 0,
      "byteOffset": 16704,
      "componentType": 5125,
      "count": 20148,
      "type": "SCALAR"
    },
    {
      "bufferView": 2,
      "byteOffset": 524688,
      "componentType": 5126,
      "count": 242,
      "max": [
        1.0,
        1.0,
        1.0
      ],
      "min": [
        -1.0,
        -1.0,
        -1.0
      ],
      "type": "VEC3"
    },
    {
      "bufferView": 2,
      "byteOffset": 527592,
      "componentType": 5126,
      "count": 242,
      "max": [
        0.9951847791671753,
        0.9951847791671753,
        1.0
      ],
      "min": [
        -0.9951848983764648,
        -0.9951847791671753,
        -1.0
      ],
      "type": "VEC3"
    },
    {
      "bufferView": 1,
      "byteOffset": 330056,
      "componentType": 5126,
      "count": 242,
      "max": [
        1.0,
        1.0
      ],
      "min": [
        0.0,
        0.009999990463256836
      ],
      "type": "VEC2"
    },
    {
      "bufferView": 0,
      "byteOffset": 97296,
      "componentType": 5125,
      "count": 372,
      "type": "SCALAR"
    },
    {
      "bufferView": 2,
      "byteOffset": 530496,
      "componentType": 5126,
      "count": 242,
      "max": [
        1.0,
        1.0,
        1.0
      ],
      "min": [
        -1.0,
        -1.0,
        -1.0
      ],
      "type": "VEC3"
    },
    {
      "bufferView": 2,
      "byteOffset": 533400,
      "componentType": 5126,
      "count": 242,
      "max": [
        0.9951847791671753,
        0.9951847791671753,
        1.0
      ],
      "min": [
        -0.9951848983764648,
        -0.9951847791671753,
        -1.0
      ],
      "type": "VEC3"
    },
    {
      "bufferView": 1,
      "byteOffset": 331992,
      "componentType": 5126,
      "count": 242,
      "max": [
        1.0,
        1.0
      ],
      "min": [
        0.0,
        0.009999990463256836
      ],
      "type": "VEC2"
    },
    {
      "bufferView": 0,
      "byteOffset": 98784,
      "componentType": 5125,
      "count": 372,
      "type": "SCALAR"
    },
    {
      "bufferView": 2,
      "byteOffset": 536304,
      "componentType": 5126,
      "count": 1314,
      "max": [
        1.0,
        1.0,
        1.0318599939346313
      ],
      "min": [
        -1.0,
        -1.0,
        -1.372007966041565
      ],
      "type": "VEC3"
    },
    {
      "bufferView": 2,
      "byteOffset": 552072,
      "componentType": 5126,
      "count": 1314,
      "max": [
        0.9951848983764648,
        0.9951848983764648,
        0.9657933712005615
      ],
      "min": [
        -0.9951848983764648,
        -0.9951848983764648,
        -0.7809473872184753
      ],
      "type": "VEC3"
    },
    {
      "bufferView": 1,
      "byteOffset": 333928,
      "componentType": 5126,
      "count": 1314,
      "max": [
        1.0,
        1.0
      ],
      "min": [
        0.0,
        0.5
      ],
      "type": "VEC2"
    },
    {
      "bufferView": 0,
      "byteOffset": 100272,
      "componentType": 5125,
      "count": 1344,
      "type": "SCALAR"
    },
    {
      "bufferView": 2,
      "byteOffset": 567840,
      "componentType": 5126,
      "count": 188,
      "max": [
        0.5251004099845886,
        0.525100588798523,
        1.069551944732666
      ],
      "min": [
        -0.5251002907752991,
        -0.5251001715660095,
        0.8865895867347717
      ],
      "type": "VEC3"
    },
    {
      "bufferView": 2,
      "byteOffset": 570096,
      "componentType": 5126,
      "count": 188,
      "max": [
        0.8207429051399231,
        0.8207426071166992,
        0.5655515789985657
      ],
      "min": [
        -0.8207423090934753,
        -0.8207423090934753,
        0.565549910068512
      ],
      "type": "VEC3"
    },
    {
      "bufferView": 1,
      "byteOffset": 344440,
      "componentType": 5126,
      "count": 188,
      "max": [
        0.39308470487594604,
        0.3930847942829132
      ],
      "min": [
        0.10691539943218231,
        0.1069151982665062
      ],
      "type": "VEC2"
    },
    {
      "bufferView": 0,
      "byteOffset": 105648,
      "componentType": 5125,
      "count": 192,
      "type": "SCALAR"
    },
    {
      "bufferView": 2,
      "byteOffset": 572352,
      "componentType": 5126,
      "count": 71,
      "max": [
        0.3990263044834137,
        0.3990265130996704,
        1.069551944732666
      ],
      "min": [
        -0.3990260064601898,
        -0.3990260064601898,
        1.069551944732666
      ],
      "type": "VEC3"
    },
    {
      "bufferView": 2,
      "byteOffset": 573204,
      "componentType": 5126,
      "count": 71,
      "max": [
        2.496590059308801e-05,
        0.0,
        1.0
      ],
      "min": [
        -1.2482900274335407e-05,
        0.0,
        1.0
      ],
      "type": "VEC3"
    },
    {
      "bufferView": 1,
      "byteOffset": 345944,
      "componentType": 5126,
      "count": 71,
      "max": [
        0.39308470487594604,
        0.3930847942829132
      ],
      "min": [
        0.10691539943218231,
        0.1069151982665062
      ],
      "type": "VEC2"
    },
    {
      "bufferView": 0,
      "byteOffset": 106416,
      "componentType": 5125,
      "count": 90,
      "type": "SCALAR"
    },
    {
      "bufferView": 2,
      "byteOffset": 574056,
      "componentType": 5126,
      "count": 148,
      "max": [
        0.8807662725448608,
        0.8807665109634399,
        0.8865897059440613
      ],
      "min": [
        -0.8807662129402161,
        -0.8807660937309265,
        0.8865895867347717
      ],
      "type": "VEC3"
    },
    {
      "bufferView": 2,
      "byteOffset": 575832,
      "componentType": 5126,
      "count": 148,
      "max": [
        4.876540060649859e-07,
        6.169299808789219e-07,
        1.0
      ],
      "min": [
        -1.6359100527552073e-06,
        -6.169299808789219e-07,
        1.0
      ],
      "type": "VEC3"
    },
    {
      "bufferView": 1,
      "byteOffset": 346512,
      "componentType": 5126,
      "count": 148,
      "max": [
        0.49000000953674316,
        0.49000000953674316
      ],
      "min": [
        0.009999990463256836,
        0.009999990463256836
      ],
      "type": "VEC2"
    },
    {
      "bufferView": 0,
      "byteOffset": 106776,
      "componentType": 5125,
      "count": 192,
      "type": "SCALAR"
    },
    {
      "bufferView": 2,
      "byteOffset": 577608,
      "componentType": 5126,
      "count": 68,
      "max": [
        0.3647207021713257,
        0.3647215962409973,
        -1.3127529621124268
      ],
      "min": [
        -0.3647207021713257,
        -0.36471980810165405,
        -1.3127529621124268
      ],
      "type": "VEC3"
    },
    {
      "bufferView": 2,
      "byteOffset": 578424,
      "componentType": 5126,
      "count": 68,
      "max": [
        2.9883300157962367e-05,
        0.0,
        -1.0
      ],
      "min": [
        -2.0180699721095152e-05,
        0.0,
        -1.0
      ],
      "type": "VEC3"
    },
    {
      "bufferView": 1,
      "byteOffset": 347696,
      "componentType": 5126,
      "count": 68,
      "max": [
        0.9900000095367432,
        0.49000000953674316
      ],
      "min": [
        0.5099999904632568,
        0.009999990463256836
      ],
      "type": "VEC2"
    },
    {
      "bufferView": 0,
      "byteOffset": 107544,
      "componentType": 5125,
      "count": 90,
      "type": "SCALAR"
    },
    {
      "bufferView": 2,
      "byteOffset": 579240,
      "componentType": 5126,
      "count": 1308,
      "max": [
        1.0,
        1.0,
        1.0318599939346313
      ],
      "min": [
        -1.0,
        -1.0,
        -1.372007966041565
      ],
      "type": "VEC3"
    },
    {
      "bufferView": 2,
      "byteOffset": 594936,
      "componentType": 5126,
      "count": 1308,
      "max": [
        0.9951848983764648,
        0.9951848983764648,
        0.9657933712005615
      ],
      "min": [
        -0.9951848983764648,
        -0.9951848983764648,
        -0.7809473872184753
      ],
      "type": "VEC3"
    },
    {
      "bufferView": 1,
      "byteOffset": 348240,
      "componentType": 5126,
      "count": 1308,
      "max": [
        1.0,
        1.0
      ],
      "min": [
        0.0,
        0.5
      ],
      "type": "VEC2"
    },
    {
      "bufferView": 0,
      "byteOffset": 107904,
      "componentType": 5125,
      "count": 1344,
      "type": "SCALAR"
    },
    {
      "bufferView": 2,
      "byteOffset": 610632,
      "componentType": 5126,
      "count": 188,
      "max": [
        0.5251004099845886,
        0.525100588798523,
        1.069551944732666
      ],
      "min": [
        -0.5251002907752991,
        -0.5251001715660095,
        0.8865895867347717
      ],
      "type": "VEC3"
    },
    {
      "bufferView": 2,
      "byteOffset": 612888,
      "componentType": 5126,
      "count": 188,
      "max": [
        0.8207429051399231,
        0.8207426071166992,
        0.5655515789985657
      ],
      "min": [
        -0.8207423090934753,
        -0.8207423090934753,
        0.565549910068512
      ],
      "type": "VEC3"
    },
    {
      "bufferView": 1,
      "byteOffset": 358704,
      "componentType": 5126,
      "count": 188,
      "max": [
        0.39308470487594604,
        0.3930847942829132
      ],
      "min": [
        0.10691539943218231,
        0.1069151982665062
      ],
      "type": "VEC2"
    },
    {
      "bufferView": 0,
      "byteOffset": 113280,
      "componentType": 5125,
      "count": 192,
      "type": "SCALAR"
    },
    {
      "bufferView": 2,
      "byteOffset": 615144,
      "componentType": 5126,
      "count": 71,
      "max": [
        0.3990263044834137,
        0.3990265130996704,
        1.069551944732666
      ],
      "min": [
        -0.3990260064601898,
        -0.3990260064601898,
        1.069551944732666
      ],
      "type": "VEC3"
    },
    {
      "bufferView": 2,
      "byteOffset": 615996,
      "componentType": 5126,
      "count": 71,
      "max": [
        2.496590059308801e-05,
        0.0,
        1.0
      ],
      "min": [
        -1.2482900274335407e-05,
        0.0,
        1.0
      ],
      "type": "VEC3"
    },
    {
      "bufferView": 1,
      "byteOffset": 360208,
      "componentType": 5126,
      "count": 71,
      "max": [
        0.39308470487594604,
        0.3930847942829132
      ],
      "min": [
        0.10691539943218231,
        0.1069151982665062
      ],
      "type": "VEC2"
    },
    {
      "bufferView": 0,
      "byteOffset": 114048,
      "componentType": 5125,
      "count": 90,
      "type": "SCALAR"
    },
    {
      "bufferView": 2,
      "byteOffset": 616848,
      "componentType": 5126,
      "count": 148,
      "max": [
        0.8807662725448608,
        0.8807665109634399,
        0.8865897059440613
      ],
      "min": [
        -0.8807662129402161,
        -0.8807660937309265,
        0.8865895867347717
      ],
      "type": "VEC3"
    },
    {
      "bufferView": 2,
      "byteOffset": 618624,
      "componentType": 5126,
      "count": 148,
      "max": [
        4.876540060649859e-07,
        6.169299808789219e-07,
        1.0
      ],
      "min": [
        -1.6359100527552073e-06,
        -6.169299808789219e-07,
        1.0
      ],
      "type": "VEC3"
    },
    {
      "bufferView": 1,
      "byteOffset": 360776,
      "componentType": 5126,
      "count": 148,
      "max": [
        0.49000000953674316,
        0.49000000953674316
      ],
      "min": [
        0.009999990463256836,
        0.009999990463256836
      ],
      "type": "VEC2"
    },
    {
      "bufferView": 0,
      "byteOffset": 114408,
      "componentType": 5125,
      "count": 192,
      "type": "SCALAR"
    },
    {
      "bufferView": 2,
      "byteOffset": 620400,
      "componentType": 5126,
      "count": 54,
      "max": [
        0.3647207021713257,
        0.3647215962409973,
        -1.3449939489364624
      ],
      "min": [
        -0.3647207021713257,
        -0.36471980810165405,
        -1.3449939489364624
      ],
      "type": "VEC3"
    },
    {
      "bufferView": 2,
      "byteOffset": 621048,
      "componentType": 5126,
      "count": 54,
      "max": [
        2.9883300157962367e-05,
        0.0,
        -1.0
      ],
      "min": [
        -2.0180699721095152e-05,
        0.0,
        -1.0
      ],
      "type": "VEC3"
    },
    {
      "bufferView": 1,
      "byteOffset": 361960,
      "componentType": 5126,
      "count": 54,
      "max": [
        0.9900000095367432,
        0.49000000953674316
      ],
      "min": [
        0.5099999904632568,
        0.009999990463256836
      ],
      "type": "VEC2"
    },
    {
      "bufferView": 0,
      "byteOffset": 115176,
      "componentType": 5125,
      "count": 90,
      "type": "SCALAR"
    },
    {
      "bufferView": 2,
      "byteOffset": 621696,
      "componentType": 5126,
      "count": 2,
      "max": [
        0.0,
        -1.0935499668121338,
        0.7607502937316895
      ],
      "min": [
        0.0,
        -1.5749529600143433,
        -0.47042199969291687
      ],
      "type": "VEC3"
    },
    {
      "bufferView": 0,
      "byteOffset": 115536,
      "componentType": 5125,
      "count": 2,
      "type": "SCALAR"
    },
    {
      "bufferView": 2,
      "byteOffset": 621720,
      "componentType": 5126,
      "count": 2183,
      "max": [
        1.0,
        1.0,
        1.4741920232772827
      ],
      "min": [
        -1.0,
        -1.7820249795913696,
        -1.0
      ],
      "type": "VEC3"
    },
    {
      "bufferView": 2,
      "byteOffset": 647916,
      "componentType": 5126,
      "count": 2183,
      "max": [
        1.0,
        1.0,
        1.0
      ],
      "min": [
        -1.0,
        -1.0,
        -1.0
      ],
      "type": "VEC3"
    },
    {
      "bufferView": 1,
      "byteOffset": 362392,
      "componentType": 5126,
      "count": 2183,
      "max": [
        0.75,
        0.875
      ],
      "min": [
        0.25,
        0.375
      ],
      "type": "VEC2"
    },
    {
      "bufferView": 0,
      "byteOffset": 115544,
      "componentType": 5125,
      "count": 3612,
      "type": "SCALAR"
    },
    {
      "bufferView": 2,
      "byteOffset": 674112,
      "componentType": 5126,
      "count": 322,
      "max": [
        0.5086236000061035,
        -0.7339698076248169,
        0.7346683740615845
      ],
      "min": [
        -0.5086236000061035,
        -1.5688610076904297,
        -0.5034955739974976
      ],
      "type": "VEC3"
    },
    {
      "bufferView": 2,
      "byteOffset": 677976,
      "componentType": 5126,
      "count": 322,
      "max": [
        0.9886870980262756,
        0.7034539580345154,
        0.7839605808258057
      ],
      "min": [
        -0.9886869788169861,
        -0.9716823697090149,
        -0.7838014960289001
      ],
      "type": "VEC3"
    },
    {
      "bufferView": 1,
      "byteOffset": 379856,
      "componentType": 5126,
      "count": 322,
      "max": [
        0.5950937867164612,
        0.8642162084579468
      ],
      "min": [
        0.4411967098712921,
        0.7402824759483337
      ],
      "type": "VEC2"
    },
    {
      "bufferView": 0,
      "byteOffset": 129992,
      "componentType": 5125,
      "count": 324,
      "type": "SCALAR"
    },
    {
      "bufferView": 2,
      "byteOffset": 681840,
      "componentType": 5126,
      "count": 72,
      "max": [
        0.44742149114608765,
        -0.773329496383667,
        0.6625787019729614
      ],
      "min": [
        -0.44742149114608765,
        -1.5457919836044312,
        -0.5034955739974976
      ],
      "type": "VEC3"
    },
    {
      "bufferView": 2,
      "byteOffset": 682704,
      "componentType": 5126,
      "count": 72,
      "max": [
        0.9812737703323364,
        -0.14823150634765625,
        0.3658263385295868
      ],
      "min": [
        -0.9812737703323364,
        -0.9306305050849915,
        -0.12300089746713638
      ],
      "type": "VEC3"
    },
    {
      "bufferView": 1,
      "byteOffset": 382432,
      "componentType": 5126,
      "count": 72,
      "max": [
        0.5910598039627075,
        0.8474938273429871
      ],
      "min": [
        0.4453200101852417,
        0.7415322065353394
      ],
      "type": "VEC2"
    },
    {
      "bufferView": 0,
      "byteOffset": 131288,
      "componentType": 5125,
      "count": 72,
      "type": "SCALAR"
    },
    {
      "bufferView": 2,
      "byteOffset": 683568,
      "componentType": 5126,
      "count": 376,
      "max": [
        1.5394870042800903,
        1.0,
        1.0
      ],
      "min": [
        -1.5394870042800903,
        -1.0,
        -1.0
      ],
      "type": "VEC3"
    },
    {
      "bufferView": 2,
      "byteOffset": 688080,
      "componentType": 5126,
      "count": 376,
      "max": [
        1.0,
        1.0,
        1.0
      ],
      "min": [
        -1.0,
        -1.0,
        -1.0
      ],
      "type": "VEC3"
    },
    {
      "bufferView": 1,
      "byteOffset": 383008,
      "componentType": 5126,
      "count": 376,
      "max": [
        0.75,
        0.875
      ],
      "min": [
        0.25,
        0.375
      ],
      "type": "VEC2"
    },
    {
      "bufferView": 0,
      "byteOffset": 131576,
      "componentType": 5125,
      "count": 720,
      "type": "SCALAR"
    },
    {
      "bufferView": 2,
      "byteOffset": 692592,
      "componentType": 5126,
      "count": 779,
      "max": [
        1.0,
        1.0000020265579224,
        6.237687110900879
      ],
      "min": [
        -1.0,
        -1.0,
        -1.0
      ],
      "type": "VEC3"
    },
    {
      "bufferView": 2,
      "byteOffset": 701940,
      "componentType": 5126,
      "count": 779,
      "max": [
        0.9951848983764648,
        0.9951847791671753,
        1.0
      ],
      "min": [
        -0.9951848983764648,
        -0.9951848387718201,
        -1.0
      ],
      "type": "VEC3"
    },
    {
      "bufferView": 1,
      "byteOffset": 386016,
      "componentType": 5126,
      "count": 779,
      "max": [
        1.0,
        1.0
      ],
      "min": [
        0.0,
        0.009999990463256836
      ],
      "type": "VEC2"
    },
    {
      "bufferView": 0,
      "byteOffset": 134456,
      "componentType": 5125,
      "count": 948,
      "type": "SCALAR"
    },
    {
      "bufferView": 2,
      "byteOffset": 711288,
      "componentType": 5126,
      "count": 779,
      "max": [
        1.0,
        1.0000020265579224,
        6.237687110900879
      ],
      "min": [
        -1.0,
        -1.0,
        -1.0
      ],
      "type": "VEC3"
    },
    {
      "bufferView": 2,
      "byteOffset": 720636,
      "componentType": 5126,
      "count": 779,
      "max": [
        0.9951848983764648,
        0.9951847791671753,
        1.0
      ],
      "min": [
        -0.9951848983764648,
        -0.9951848387718201,
        -1.0
      ],
      "type": "VEC3"
    },
    {
      "bufferView": 1,
      "byteOffset": 392248,
      "componentType": 5126,
      "count": 779,
      "max": [
        1.0,
        1.0
      ],
      "min": [
        0.0,
        0.009999990463256836
      ],
      "type": "VEC2"
    },
    {
      "bufferView": 0,
      "byteOffset": 138248,
      "componentType": 5125,
      "count": 948,
      "type": "SCALAR"
    },
    {
      "bufferView": 2,
      "byteOffset": 729984,
      "componentType": 5126,
      "count": 779,
      "max": [
        1.0,
        1.0000020265579224,
        6.237687110900879
      ],
      "min": [
        -1.0,
        -1.0,
        -1.0
      ],
      "type": "VEC3"
    },
    {
      "bufferView": 2,
      "byteOffset": 739332,
      "componentType": 5126,
      "count": 779,
      "max": [
        0.9951848983764648,
        0.9951847791671753,
        1.0
      ],
      "min": [
        -0.9951848983764648,
        -0.9951848387718201,
        -1.0
      ],
      "type": "VEC3"
    },
    {
      "bufferView": 1,
      "byteOffset": 398480,
      "componentType": 5126,
      "count": 779,
      "max": [
        1.0,
        1.0
      ],
      "min": [
        0.0,
        0.009999990463256836
      ],
      "type": "VEC2"
    },
    {
      "bufferView": 0,
      "byteOffset": 142040,
      "componentType": 5125,
      "count": 948,
      "type": "SCALAR"
    },
    {
      "bufferView": 2,
      "byteOffset": 748680,
      "componentType": 5126,
      "count": 14868,
      "max": [
        1.5533020496368408,
        1.1693600416183472,
        1.0
      ],
      "min": [
        -1.5533020496368408,
        -1.0,
        -2.2663400173187256
      ],
      "type": "VEC3"
    },
    {
      "bufferView": 2,
      "byteOffset": 927096,
      "componentType": 5126,
      "count": 14868,
      "max": [
        1.0,
        1.0,
        1.0
      ],
      "min": [
        -1.0,
        -1.0,
        -1.0
      ],
      "type": "VEC3"
    },
    {
      "bufferView": 1,
      "byteOffset": 404712,
      "componentType": 5126,
      "count": 14868,
      "max": [
        1.0,
        1.0
      ],
      "min": [
        0.0,
        0.009999990463256836
      ],
      "type": "VEC2"
    },
    {
      "bufferView": 0,
      "byteOffset": 145832,
      "componentType": 5125,
      "count": 19152,
      "type": "SCALAR"
    },
    {
      "bufferView": 2,
      "byteOffset": 1105512,
      "componentType": 5126,
      "count": 20,
      "max": [
        1.5126930475234985,
        -0.002276419894769788,
        -0.33194050192832947
      ],
      "min": [
        -1.5126930475234985,
        -0.004444301128387451,
        -2.2663400173187256
      ],
      "type": "VEC3"
    },
    {
      "bufferView": 2,
      "byteOffset": 1105752,
      "componentType": 5126,
      "count": 20,
      "max": [
        0.004821716342121363,
        -0.9999880790710449,
        0.0009178650216199458
      ],
      "min": [
        -0.004821716342121363,
        -1.0,
        -0.0007422888884320855
      ],
      "type": "VEC3"
    },
    {
      "bufferView": 1,
      "byteOffset": 523656,
      "componentType": 5126,
      "count": 20,
      "max": [
        0.4587899148464203,
        0.6252846717834473
      ],
      "min": [
        0.34542280435562134,
        0.6252843737602234
      ],
      "type": "VEC2"
    },
    {
      "bufferView": 0,
      "byteOffset": 222440,
      "componentType": 5125,
      "count": 24,
      "type": "SCALAR"
    }
  ],
  "asset": {
    "extras": {
      "author": "mertaltintas (https://sketchfab.com/mertaltintas)",
      "license": "CC-BY-4.0 (http://creativecommons.org/licenses/by/4.0/)",
      "source": "https://sketchfab.com/3d-models/spaceship-d9c1c4fa6a284fe797346ce7c9a5838f",
      "title": "Spaceship"
    },
    "generator": "Sketchfab-12.65.0",
    "version": "2.0"
  },
  "bufferViews": [
    {
      "buffer": 0,
      "byteLength": 222536,
      "name": "floatBufferViews",
      "target": 34963
    },
    {
      "buffer": 0,
      "byteLength": 523816,
      "byteOffset": 222536,
      "byteStride": 8,
      "name": "floatBufferViews",
      "target": 34962
    },
    {
      "buffer": 0,
      "byteLength": 1105992,
      "byteOffset": 746352,
      "byteStride": 12,
      "name": "floatBufferViews",
      "target": 34962
    }
  ],
  "buffers": [
    {
      "byteLength": 1852344,
      "uri": "scene.bin"
    }
  ],
  "images": [
    {
      "uri": "textures/Material.001_baseColor.jpeg"
    }
  ],
  "materials": [
    {
      "doubleSided": true,
      "name": "material_0",
      "pbrMetallicRoughness": {
        "metallicFactor": 0.0,
        "roughnessFactor": 0.6
      }
    },
    {
      "doubleSided": true,
      "name": "Material.001",
      "pbrMetallicRoughness": {
        "baseColorTexture": {
          "index": 0
        },
        "metallicFactor": 0.3431783537,
        "roughnessFactor": 0.6
      }
    },
    {
      "doubleSided": true,
      "name": "Material.008",
      "pbrMetallicRoughness": {
        "baseColorFactor": [
          0.8,
          0.8,
          0.8,
          1.0
        ],
        "metallicFactor": 0.0,
        "roughnessFactor": 0.6
      }
    },
    {
      "doubleSided": true,
      "name": "Material.003",
      "pbrMetallicRoughness": {
        "baseColorFactor": [
          1.0,
          0.427593,
          0.0851551,
          1.0
        ],
        "metallicFactor": 0.0,
        "roughnessFactor": 0.6
      }
    },
    {
      "doubleSided": true,
      "name": "Light.001",
      "pbrMetallicRoughness": {
        "baseColorFactor": [
          0.8,
          0.8,
          0.8,
          1.0
        ],
        "metallicFactor": 0.0,
        "roughnessFactor": 0.6
      }
    },
    {
      "doubleSided": true,
      "name": "Material.007",
      "pbrMetallicRoughness": {
        "baseColorFactor": [
          0.0,
          0.0,
          0.0,
          1.0
        ],
        "metallicFactor": 0.0,
        "roughnessFactor": 0.6
      }
    },
    {
      "doubleSided": true,
      "name": "Material.009",
      "pbrMetallicRoughness": {
        "baseColorFactor": [
          0.8,
          0.8,
          0.8,
          1.0
        ],
        "metallicFactor": 0.0,
        "roughnessFactor": 0.6
      }
    }
  ],
  "meshes": [
    {
      "name": "Material_001-material",
      "primitives": [
        {
          "attributes": {
            "NORMAL": 1,
            "POSITION": 0,
            "TEXCOORD_0": 2
          },
          "indices": 3,
          "material": 1,
          "mode": 4
        }
      ]
    },
    {
      "name": "Material_003-material",
      "primitives": [
        {
          "attributes": {
            "NORMAL": 5,
            "POSITION": 4,
            "TEXCOORD_0": 6
          },
          "indices": 7,
          "material": 3,
          "mode": 4
        }
      ]
    },
    {
      "name": "Material_001-material",
      "primitives": [
        {
          "attributes": {
            "NORMAL": 9,
            "POSITION": 8,
            "TEXCOORD_0": 10,
            "TEXCOORD_1": 11
          },
          "indices": 12,
          "material": 1,
          "mode": 4
        }
      ]
    },
    {
      "name": "Object_3",
      "primitives": [
        {
          "attributes": {
            "NORMAL": 14,
            "POSITION": 13,
            "TEXCOORD_0": 15
          },
          "indices": 16,
          "material": 0,
          "mode": 4
        }
      ]
    },
    {
      "name": "Object_4",
      "primitives": [
        {
          "attributes": {
            "NORMAL": 18,
            "POSITION": 17,
            "TEXCOORD_0": 19
          },
          "indices": 20,
          "material": 0,
          "mode": 4
        }
      ]
    },
    {
      "name": "Material_001-material",
      "primitives": [
        {
          "attributes": {
            "NORMAL": 22,
            "POSITION": 21,
            "TEXCOORD_0": 23
          },
          "indices": 24,
          "material": 1,
          "mode": 4
        }
      ]
    },
    {
      "name": "Material_003-material",
      "primitives": [
        {
          "attributes": {
            "NORMAL": 26,
            "POSITION": 25,
            "TEXCOORD_0": 27
          },
          "indices": 28,
          "material": 3,
          "mode": 4
        }
      ]
    },
    {
      "name": "Material_007-material",
      "primitives": [
        {
          "attributes": {
            "NORMAL": 30,
            "POSITION": 29,
            "TEXCOORD_0": 31
          },
          "indices": 32,
          "material": 5,
          "mode": 4
        }
      ]
    },
    {
      "name": "Material_008-material",
      "primitives": [
        {
          "attributes": {
            "NORMAL": 34,
            "POSITION": 33,
            "TEXCOORD_0": 35
          },
          "indices": 36,
          "material": 2,
          "mode": 4
        }
      ]
    },
    {
      "name": "Material_009-material",
      "primitives": [
        {
          "attributes": {
            "NORMAL": 38,
            "POSITION": 37,
            "TEXCOORD_0": 39
          },
          "indices": 40,
          "material": 6,
          "mode": 4
        }
      ]
    },
    {
      "name": "Material_001-material",
      "primitives": [
        {
          "attributes": {
            "NORMAL": 42,
            "POSITION": 41,
            "TEXCOORD_0": 43
          },
          "indices": 44,
          "material": 1,
          "mode": 4
        }
      ]
    },
    {
      "name": "Material_003-material",
      "primitives": [
        {
          "attributes": {
            "NORMAL": 46,
            "POSITION": 45,
            "TEXCOORD_0": 47
          },
          "indices": 48,
          "material": 3,
          "mode": 4
        }
      ]
    },
    {
      "name": "Material_007-material",
      "primitives": [
        {
          "attributes": {
            "NORMAL": 50,
            "POSITION": 49,
            "TEXCOORD_0": 51
          },
          "indices": 52,
          "material": 5,
          "mode": 4
        }
      ]
    },
    {
      "name": "Material_008-material",
      "primitives": [
        {
          "attributes": {
            "NORMAL": 54,
            "POSITION": 53,
            "TEXCOORD_0": 55
          },
          "indices": 56,
          "material": 2,
          "mode": 4
        }
      ]
    },
    {
      "name": "Material_009-material",
      "primitives": [
        {
          "attributes": {
            "NORMAL": 58,
            "POSITION": 57,
            "TEXCOORD_0": 59
          },
          "indices": 60,
          "material": 6,
          "mode": 4
        }
      ]
    },
    {
      "name": "Object_15",
      "primitives": [
        {
          "attributes": {
            "POSITION": 61
          },
          "indices": 62,
          "material": 0,
          "mode": 1
        }
      ]
    },
    {
      "name": "Material_001-material",
      "primitives": [
        {
          "attributes": {
            "NORMAL": 64,
            "POSITION": 63,
            "TEXCOORD_0": 65
          },
          "indices": 66,
          "material": 1,
          "mode": 4
        }
      ]
    },
    {
      "name": "Material_003-material",
      "primitives": [
        {
          "attributes": {
            "NORMAL": 68,
            "POSITION": 67,
            "TEXCOORD_0": 69
          },
          "indices": 70,
          "material": 3,
          "mode": 4
        }
      ]
    },
    {
      "name": "Material_004-material",
      "primitives": [
        {
          "attributes": {
            "NORMAL": 72,
            "POSITION": 71,
            "TEXCOORD_0": 73
          },
          "indices": 74,
          "material": 4,
          "mode": 4
        }
      ]
    },
    {
      "name": "Material_001-material",
      "primitives": [
        {
          "attributes": {
            "NORMAL": 76,
            "POSITION": 75,
            "TEXCOORD_0": 77
          },
          "indices": 78,
          "material": 1,
          "mode": 4
        }
      ]
    },
    {
      "name": "Material_001-material",
      "primitives": [
        {
          "attributes": {
            "NORMAL": 80,
            "POSITION": 79,
            "TEXCOORD_0": 81
          },
          "indices": 82,
          "material": 1,
          "mode": 4
        }
      ]
    },
    {
      "name": "Material_001-material",
      "primitives": [
        {
          "attributes": {
            "NORMAL": 84,
            "POSITION": 83,
            "TEXCOORD_0": 85
          },
          "indices": 86,
          "material": 1,
          "mode": 4
        }
      ]
    },
    {
      "name": "Material_001-material",
      "primitives": [
        {
          "attributes": {
            "NORMAL": 88,
            "POSITION": 87,
            "TEXCOORD_0": 89
          },
          "indices": 90,
          "material": 1,
          "mode": 4
        }
      ]
    },
    {
      "name": "Material_001-material",
      "primitives": [
        {
          "attributes": {
            "NORMAL": 92,
            "POSITION": 91,
            "TEXCOORD_0": 93
          },
          "indices": 94,
          "material": 1,
          "mode": 4
        }
      ]
    },
    {
      "name": "Material_008-material",
      "primitives": [
        {
          "attributes": {
            "NORMAL": 96,
            "POSITION": 95,
            "TEXCOORD_0": 97
          },
          "indices": 98,
          "material": 2,
          "mode": 4
        }
      ]
    }
  ],
  "nodes": [
    {
      "children": [
        1
      ],
      "matrix": [
        1.0,
        0.0,
        0.0,
        0.0,
        0.0,
        2.220446049250313e-16,
        -1.0,
        0.0,
        0.0,
        1.0,
        2.220446049250313e-16,
        0.0,
        0.0,
        0.0,
        0.0,
        1.0
      ],
      "name": "Sketchfab_model"
    },
    {
      "children": [
        2,
        5,
        7,
        9,
        11,
        13,
        19,
        25,
        30,
        32,
        34,
        36,
        38,
        41,
        43
      ],
      "name": "Collada visual scene group"
    },
    {
      "children": [
        3,
        4
      ],
      "matrix": [
        0.9225067,
        0.0,
        0.0,
        0.0,
        0.0,
        1.081847,
        0.0,
        0.0,
        0.0,
        0.0,
        0.0352011,
        0.0,
        -0.00051643,
        -0.01460516,
        4.917407,
        1.0
      ],
      "name": "Cube"
    },
    {
      "mesh": 0,
      "name": "Material_001-material"
    },
    {
      "mesh": 1,
      "name": "Material_003-material"
    },
    {
      "children": [
        6
      ],
      "matrix": [
        -0.2908646,
        0.9551712,
        -0.05518906,
        0.0,
        -0.7711008,
        -0.1998834,
        0.6045247,
        0.0,
        0.5663932,
        0.2183912,
        0.7946723,
        0.0,
        0.5244446,
        2.938864,
        7.844279,
        1.0
      ],
      "name": "Light"
    },
    {
      "name": "Light"
    },
    {
      "children": [
        8
      ],
      "matrix": [
        1.34932,
        0.0,
        0.0,
        0.0,
        0.0,
        1.595515,
        0.0,
        0.0,
        0.0,
        0.0,
        0.008270477,
        0.0,
        -0.00051643,
        0.2726029,
        3.789011,
        1.0
      ],
      "name": "Cube.001"
    },
    {
      "mesh": 2,
      "name": "Material_001-material"
    },
    {
      "children": [
        10
      ],
      "matrix": [
        0.02495969,
        0.0,
        -0.01620119,
        0.0,
        0.0,
        0.02975677,
        0.0,
        0.0,
        0.1254383,
        0.0,
        0.1932513,
        0.0,
        3.512097,
        -0.2650161,
        16.0225,
        1.0
      ],
      "name": "Cylinder"
    },
    {
      "mesh": 3,
      "name": "Object_10"
    },
    {
      "children": [
        12
      ],
      "matrix": [
        0.02495969,
        0.0,
        -0.01620119,
        0.0,
        0.0,
        0.02975677,
        0.0,
        0.0,
        0.1254383,
        0.0,
        0.1932513,
        0.0,
        3.562111,
        -0.2650161,
        15.95557,
        1.0
      ],
      "name": "Cylinder.001"
    },
    {
      "mesh": 4,
      "name": "Object_12"
    },
    {
      "children": [
        14,
        15,
        16,
        17,
        18
      ],
      "matrix": [
        0.4340178,
        0.0,
        0.0,
        0.0,
        0.0,
        -1.89715e-08,
        0.4340178,
        0.0,
        0.0,
        -1.519365,
        -6.64136e-08,
        0.0,
        1.368218,
        -0.01460516,
        3.330116,
        1.0
      ],
      "name": "Cylinder.002"
    },
    {
      "mesh": 5,
      "name": "Material_001-material"
    },
    {
      "mesh": 6,
      "name": "Material_003-material"
    },
    {
      "mesh": 7,
      "name": "Material_007-material"
    },
    {
      "mesh": 8,
      "name": "Material_008-material"
    },
    {
      "mesh": 9,
      "name": "Material_009-material"
    },
    {
      "children": [
        20,
        21,
        22,
        23,
        24
      ],
      "matrix": [
        0.4340178,
        0.0,
        0.0,
        0.0,
        0.0,
        -1.89715e-08,
        0.4340178,
        0.0,
        0.0,
        -1.519365,
        -6.64136e-08,
        0.0,
        -1.359095,
        -0.01460516,
        3.330116,
        1.0
      ],
      "name": "Cylinder.003"
    },
    {
      "mesh": 10,
      "name": "Material_001-material"
    },
    {
      "mesh": 11,
      "name": "Material_003-material"
    },
    {
      "mesh": 12,
      "name": "Material_007-material"
    },
    {
      "mesh": 13,
      "name": "Material_008-material"
    },
    {
      "mesh": 14,
      "name": "Material_009-material"
    },
    {
      "children": [
        26,
        27,
        28,
        29
      ],
      "matrix": [
        0.7269678,
        0.0,
        0.0,
        0.0,
        0.0,
        2.024072,
        0.0,
        0.0,
        0.0,
        0.0,
        0.5127729,
        0.0,
        0.0,
        -1.28212,
        3.408865,
        1.0
      ],
      "name": "Cube.002"
    },
    {
      "mesh": 15,
      "name": "Object_26"
    },
    {
      "mesh": 16,
      "name": "Material_001-material"
    },
    {
      "mesh": 17,
      "name": "Material_003-material"
    },
    {
      "mesh": 18,
      "name": "Material_004-material"
    },
    {
      "children": [
        31
      ],
      "matrix": [
        0.4301592,
        0.0,
        0.0,
        0.0,
        0.0,
        3.245569,
        0.0,
        0.0,
        0.0,
        0.0,
        0.08356061,
        0.0,
        0.0,
        -1.683328,
        2.814462,
        1.0
      ],
      "name": "Cube.003"
    },
    {
      "mesh": 19,
      "name": "Material_001-material"
    },
    {
      "children": [
        33
      ],
      "matrix": [
        0.04637778,
        0.0,
        0.0,
        0.0,
        0.0,
        -1.56648e-08,
        0.04637778,
        0.0,
        0.0,
        -0.04637778,
        -1.56648e-08,
        0.0,
        0.0,
        -4.800418,
        2.815845,
        1.0
      ],
      "name": "Cylinder.004"
    },
    {
      "mesh": 20,
      "name": "Material_001-material"
    },
    {
      "children": [
        35
      ],
      "matrix": [
        0.03336862,
        0.0,
        0.0,
        0.0,
        0.0,
        -1.12708e-08,
        0.03336862,
        0.0,
        0.0,
        -0.1337514,
        -4.51767e-08,
        0.0,
        0.1974089,
        -4.004604,
        2.815845,
        1.0
      ],
      "name": "Cylinder.005"
    },
    {
      "mesh": 21,
      "name": "Material_001-material"
    },
    {
      "children": [
        37
      ],
      "matrix": [
        0.03336862,
        0.0,
        0.0,
        0.0,
        0.0,
        -1.12708e-08,
        0.03336862,
        0.0,
        0.0,
        -0.1337514,
        -4.51767e-08,
        0.0,
        -0.2094889,
        -4.004604,
        2.815845,
        1.0
      ],
      "name": "Cylinder.006"
    },
    {
      "mesh": 22,
      "name": "Material_001-material"
    },
    {
      "children": [
        39,
        40
      ],
      "matrix": [
        1.0,
        0.0,
        0.0,
        0.0,
        0.0,
        4.137599,
        0.0,
        0.0,
        0.0,
        0.0,
        -0.248282,
        0.0,
        0.0,
        -3.457274,
        2.4837920000000002,
        1.0
      ],
      "name": "Cube.004"
    },
    {
      "mesh": 23,
      "name": "Material_001-material"
    },
    {
      "mesh": 24,
      "name": "Material_008-material"
    },
    {
      "children": [
        42
      ],
      "matrix": [
        0.8793767,
        0.4759874,
        -0.01151485,
        0.0,
        -0.09263644,
        0.194766,
        0.9764654,
        0.0,
        0.4670279,
        -0.8576143,
        0.2153665,
        0.0,
        11.8524,
        -23.63759,
        8.566889,
        1.0
      ],
      "name": "Camera"
    },
    {
      "name": "Camera-camera"
    },
    {
      "children": [
        44
      ],
      "matrix": [
        -0.2908646,
        0.9551712,
        -0.05518906,
        0.0,
        -0.7711008,
        -0.1998834,
        0.6045247,
        0.0,
        0.5663932,
        0.2183912,
        0.7946723,
        0.0,
        0.5244446,
        -6.522184,
        7.844279,
        1.0
      ],
      "name": "Light.001"
    },
    {
      "name": "Light.001"
    }
  ],
  "samplers": [
    {
      "magFilter": 9729,
      "minFilter": 9987,
      "wrapS": 10497,
      "wrapT": 10497
    }
  ],
  "scene": 0,
  "scenes": [
    {
      "name": "Sketchfab_Scene",
      "nodes": [
        0
      ]
    }
  ],
  "textures": [
    {
      "sampler": 0,
      "source": 0
    }
  ]
}
